<?xml version="1.0" encoding="UTF-8" standalone="no"?>
<!-- Generator: Adobe Illustrator 19.0.0, SVG Export Plug-In . SVG Version: 6.00 Build 0)  -->

<svg
   version="1.1"
   id="layer"
   x="0px"
   y="0px"
   viewBox="-153 -46 642.51993 200.31513"
   xml:space="preserve"
   sodipodi:docname="Makro_logo.svg"
   width="170mm"
   height="53mm"
   inkscape:version="1.1.1 (3bf5ae0d25, 2021-09-20)"
   xmlns:inkscape="http://www.inkscape.org/namespaces/inkscape"
   xmlns:sodipodi="http://sodipodi.sourceforge.net/DTD/sodipodi-0.dtd"
   xmlns="http://www.w3.org/2000/svg"
   xmlns:svg="http://www.w3.org/2000/svg"><defs
   id="defs19" /><sodipodi:namedview
   id="namedview17"
   pagecolor="#ffffff"
   bordercolor="#999999"
   borderopacity="1"
   inkscape:pageshadow="0"
   inkscape:pageopacity="0"
   inkscape:pagecheckerboard="0"
   showgrid="false"
   scale-x="1"
   units="mm"
   width="1188mm"
   inkscape:zoom="1.1027607"
   inkscape:cx="291.54103"
   inkscape:cy="87.50765"
   inkscape:window-width="1920"
   inkscape:window-height="1001"
   inkscape:window-x="-9"
   inkscape:window-y="-9"
   inkscape:window-maximized="1"
   inkscape:current-layer="layer"
   inkscape:document-units="mm" />
<style
   type="text/css"
   id="style2">
	.st0{fill:#D9272E;}
</style>
<g
   id="g14"
   transform="translate(-0.68323482,-221.0765)">
	<path
   class="st0"
   d="m 406.3,252.4 c -15.9,0 -28.5,14.2 -28.5,33.8 0,19.6 12.5,35.6 28.5,35.6 15.7,0 26.7,-16.3 26.7,-35.6 0,-19.3 -11,-33.8 -26.7,-33.8 m -0.9,99 c -34.2,0 -63.1,-29.4 -63.1,-64.3 0,-35.3 29.5,-64.5 64.2,-64.5 34,0 62.6,29 62.6,64 0,16.9 -6.8,33.1 -19.1,45.5 -12.2,12.3 -28.4,19.3 -44.6,19.3"
   id="path4" />
	<path
   class="st0"
   d="M 20.7,350.7 C 8.9,350.7 3.5,339.3 3.5,331.2 v -59.3 c 0,-1.5 0.4,-14.8 -15.4,-14.8 -13.3,0 -17,4.3 -17.2,15.2 v 61 c 0,1.1 -0.6,7.5 -4.8,12.1 -2.8,3.1 -6.8,4.6 -11.9,4.6 -12.4,0 -18.1,-9.4 -18.1,-15.3 v -63.5 c 0,-4.4 -2.2,-14.3 -16.2,-14.3 -13.2,0 -16.4,7.4 -16.4,14.3 v 10.7 55.1 0.4 c -0.6,4.7 -6.9,13.5 -18.4,13.5 -10.1,0 -16.3,-8.6 -16.3,-16.6 v -89.7 c 0,-1.4 -0.4,-6.6 3.1,-10.7 2.8,-3.3 7.1,-4.9 12.7,-4.9 0.1,0 0.4,0 0.7,0 2.1,0 8.3,0.5 12.9,6.5 4.2,-4.1 13,-11 28.1,-11.3 19.6,-0.4 29.3,6.3 35.6,12.8 4.5,-4.5 14.9,-12.8 30.4,-12.8 19.5,0 29.6,9.3 35.4,16.3 4.9,5.9 10.1,17.8 10.1,30.2 v 61.1 c 0.1,6.5 -3.6,18.9 -17.1,18.9"
   id="path6" />
	<path
   class="st0"
   d="m 120.2,291.4 c -1.9,0.4 -4.4,0.8 -7.6,1.4 -5.7,1 -12.9,2.1 -20.9,4.1 -5.6,1.3 -12,7.4 -12.3,14 -0.1,2.8 0.9,5.5 2.8,7.6 3.1,3.2 8.2,4.9 14.8,4.9 0.4,0 0.8,0 1.2,0 16.6,-0.5 20,-9 21.3,-15.3 1,-5.9 0.9,-12.5 0.7,-16.7 M 90,350.7 c -12.3,0 -23.1,-4.2 -32.3,-12.5 l -0.1,-0.1 c -0.6,-0.6 -15,-14.6 -9.9,-36.7 v -0.1 c 4.3,-16.7 20.9,-26.7 52,-31.6 l 0.6,-0.1 c 9,-1.9 16.9,-3.6 19,-8.5 1.9,-5 1.6,-8.6 -5.7,-11.9 -12.9,-4.1 -22.8,-1.1 -29.3,8.8 -3.3,5 -10,8.5 -16.4,8.5 -6.7,0 -11.7,-3.8 -13.3,-10 -1.7,-6.7 -0.5,-13 3.6,-18.3 7.6,-9.8 24.9,-15.9 45.3,-15.9 29.4,0 48.4,12.5 48.4,31.8 0,16 1.2,75.7 1.3,78.4 0.1,1.1 0.4,8 -3.8,12.7 -2.6,2.9 -6.2,4.4 -10.7,4.5 -0.3,0 -0.5,0 -0.8,0 v 0 c -9.8,0 -14.5,-4.2 -16.6,-7.4 -5.5,3 -17.4,8.4 -31.3,8.4"
   id="path8" />
	<path
   class="st0"
   d="m 179.7,350.6 c -7.4,0 -12.8,-3.9 -15.5,-11.3 -2,-5.4 -2,-11.2 -2,-13.3 V 223.7 c 0,-2 -0.8,-14.6 4.4,-20.4 2.8,-3.2 6.5,-4.9 11.2,-5 h 1.6 c 5.3,0 17.4,-0.1 17.4,24.8 v 52.3 L 231,240.3 c 0,0 11.7,-12.8 19.6,-12.7 4.9,0.1 7.9,1.9 11,5.6 2.4,2.7 3.6,5.9 3.1,9.2 -0.8,5.7 -9.4,13.3 -10.9,14.8 l -20.3,20.6 30.5,43.9 c 0.7,0.9 5.6,7.5 4.6,14.7 -0.5,3.9 -2.6,7.3 -6.2,9.9 -3,2.2 -6.1,3.3 -9.3,3.4 -9.4,0.1 -16.6,-12.3 -17.2,-12.9 l -24.7,-35 -14.3,14 -0.4,17.9 c 0,5.8 -3.5,16.9 -16.8,16.9"
   id="path10" />
	<path
   class="st0"
   d="m 295.6,350.5 c -0.6,0 -6.1,-0.2 -10.2,-4.3 -4.5,-4.4 -6.3,-12.4 -6.3,-27.6 v -72.9 c -0.1,-1.3 -0.4,-10.1 4.9,-15.9 2.9,-3.2 7,-4.8 11.9,-4.8 7.6,0 12.3,4.9 14.8,8.7 2.1,-2.2 5.2,-4.8 9.1,-6.8 4.2,-2.1 8.3,-3.2 12.1,-3.2 4.9,0 11.7,1.9 16.2,10.8 l 0.1,0.3 c 1.6,4.2 1.3,8.3 -0.7,11.9 -2,3.5 -6.6,8 -17.4,10 -16.9,2.9 -17.1,20.5 -17.1,21.2 0,5.9 0.3,42.6 0.3,44.4 0.1,1.4 0.7,15.9 -6.5,23.5 -2.9,3.1 -6.7,4.7 -11.2,4.7 z"
   id="path12" />
</g>
<rect
   style="opacity:0;fill:#ff0080;fill-rule:evenodd;stroke:#3673c6;stroke-width:0.15"
   id="rect1171"
   width="709.58282"
   height="196.77885"
   x="-152.54659"
   y="178.89012" /><rect
   style="opacity:0;fill:#ff0080;fill-rule:evenodd;stroke:#3673c6;stroke-width:0.15"
   id="rect1173"
   width="638.8512"
   height="192.24478"
   x="-152.54659"
   y="178.89012" /></svg>
